<mxfile host="Electron" modified="2024-04-28T17:18:55.089Z" agent="Mozilla/5.0 (Windows NT 10.0; Win64; x64) AppleWebKit/537.36 (KHTML, like Gecko) draw.io/24.2.5 Chrome/120.0.6099.109 Electron/28.1.0 Safari/537.36" etag="jnuPeAC9uS2iKPAj2m7k" version="24.2.5" type="device">
  <diagram name="Page-1" id="lNYLDOH9afpiesVPyjoN">
    <mxGraphModel dx="1221" dy="823" grid="1" gridSize="10" guides="1" tooltips="1" connect="1" arrows="1" fold="1" page="1" pageScale="1" pageWidth="850" pageHeight="1100" math="0" shadow="0">
      <root>
        <mxCell id="0" />
        <mxCell id="1" parent="0" />
        <mxCell id="PYcwion5222IhFIjpywj-1" value="gallery image page" style="rounded=0;whiteSpace=wrap;html=1;verticalAlign=top;fillColor=#f5f5f5;fontColor=#333333;strokeColor=#666666;fontStyle=1" parent="1" vertex="1">
          <mxGeometry x="40" y="160" width="640" height="520" as="geometry" />
        </mxCell>
        <mxCell id="PYcwion5222IhFIjpywj-16" value="*custom gallery image annotator" style="rounded=0;whiteSpace=wrap;html=1;verticalAlign=top;fillColor=#fff2cc;strokeColor=#d6b656;fontStyle=1" parent="1" vertex="1">
          <mxGeometry x="250" y="290" width="410" height="360" as="geometry" />
        </mxCell>
        <mxCell id="PYcwion5222IhFIjpywj-2" value="P" style="ellipse;whiteSpace=wrap;html=1;fillColor=#d5e8d4;strokeColor=#82b366;" parent="1" vertex="1">
          <mxGeometry x="155" y="260" width="30" height="30" as="geometry" />
        </mxCell>
        <mxCell id="PYcwion5222IhFIjpywj-3" value="P" style="ellipse;whiteSpace=wrap;html=1;fillColor=#d5e8d4;strokeColor=#82b366;" parent="1" vertex="1">
          <mxGeometry x="155" y="320" width="30" height="30" as="geometry" />
        </mxCell>
        <mxCell id="PYcwion5222IhFIjpywj-4" value="P" style="ellipse;whiteSpace=wrap;html=1;fillColor=#d5e8d4;strokeColor=#82b366;" parent="1" vertex="1">
          <mxGeometry x="155" y="380" width="30" height="30" as="geometry" />
        </mxCell>
        <mxCell id="PYcwion5222IhFIjpywj-5" value="image" style="text;html=1;align=center;verticalAlign=middle;whiteSpace=wrap;rounded=0;" parent="1" vertex="1">
          <mxGeometry x="80" y="260" width="60" height="30" as="geometry" />
        </mxCell>
        <mxCell id="PYcwion5222IhFIjpywj-6" value="annotations" style="text;html=1;align=center;verticalAlign=middle;whiteSpace=wrap;rounded=0;" parent="1" vertex="1">
          <mxGeometry x="80" y="320" width="60" height="30" as="geometry" />
        </mxCell>
        <mxCell id="PYcwion5222IhFIjpywj-7" value="actions" style="text;html=1;align=center;verticalAlign=middle;whiteSpace=wrap;rounded=0;" parent="1" vertex="1">
          <mxGeometry x="80" y="380" width="60" height="30" as="geometry" />
        </mxCell>
        <mxCell id="PYcwion5222IhFIjpywj-8" value="gallery svc" style="rounded=1;whiteSpace=wrap;html=1;fillColor=#dae8fc;strokeColor=#6c8ebf;" parent="1" vertex="1">
          <mxGeometry x="260" y="116" width="70" height="30" as="geometry" />
        </mxCell>
        <mxCell id="PYcwion5222IhFIjpywj-9" value="gallery opt svc" style="rounded=1;whiteSpace=wrap;html=1;fillColor=#dae8fc;strokeColor=#6c8ebf;" parent="1" vertex="1">
          <mxGeometry x="350" y="116" width="90" height="30" as="geometry" />
        </mxCell>
        <mxCell id="PYcwion5222IhFIjpywj-10" style="edgeStyle=orthogonalEdgeStyle;rounded=0;orthogonalLoop=1;jettySize=auto;html=1;exitX=0.5;exitY=1;exitDx=0;exitDy=0;entryX=0.5;entryY=0;entryDx=0;entryDy=0;" parent="1" source="PYcwion5222IhFIjpywj-8" target="PYcwion5222IhFIjpywj-12" edge="1">
          <mxGeometry relative="1" as="geometry" />
        </mxCell>
        <mxCell id="PYcwion5222IhFIjpywj-11" style="edgeStyle=orthogonalEdgeStyle;rounded=0;orthogonalLoop=1;jettySize=auto;html=1;exitX=0.5;exitY=1;exitDx=0;exitDy=0;" parent="1" source="PYcwion5222IhFIjpywj-9" target="PYcwion5222IhFIjpywj-13" edge="1">
          <mxGeometry relative="1" as="geometry" />
        </mxCell>
        <mxCell id="PYcwion5222IhFIjpywj-12" value="gallery svc" style="rounded=1;whiteSpace=wrap;html=1;fillColor=#dae8fc;strokeColor=#6c8ebf;" parent="1" vertex="1">
          <mxGeometry x="260" y="219.5" width="70" height="30" as="geometry" />
        </mxCell>
        <mxCell id="PYcwion5222IhFIjpywj-13" value="gallery opt svc" style="rounded=1;whiteSpace=wrap;html=1;fillColor=#dae8fc;strokeColor=#6c8ebf;" parent="1" vertex="1">
          <mxGeometry x="350" y="219.5" width="90" height="30" as="geometry" />
        </mxCell>
        <mxCell id="PYcwion5222IhFIjpywj-14" style="edgeStyle=orthogonalEdgeStyle;rounded=0;orthogonalLoop=1;jettySize=auto;html=1;exitX=0.5;exitY=1;exitDx=0;exitDy=0;" parent="1" source="PYcwion5222IhFIjpywj-12" edge="1">
          <mxGeometry relative="1" as="geometry">
            <mxPoint x="295" y="290" as="targetPoint" />
          </mxGeometry>
        </mxCell>
        <mxCell id="PYcwion5222IhFIjpywj-15" style="edgeStyle=orthogonalEdgeStyle;rounded=0;orthogonalLoop=1;jettySize=auto;html=1;exitX=0.5;exitY=1;exitDx=0;exitDy=0;" parent="1" source="PYcwion5222IhFIjpywj-13" edge="1">
          <mxGeometry relative="1" as="geometry">
            <mxPoint x="395" y="290" as="targetPoint" />
          </mxGeometry>
        </mxCell>
        <mxCell id="PYcwion5222IhFIjpywj-17" value="" style="endArrow=none;html=1;rounded=0;exitX=1;exitY=0.5;exitDx=0;exitDy=0;entryX=0;entryY=0.25;entryDx=0;entryDy=0;" parent="1" source="PYcwion5222IhFIjpywj-2" target="PYcwion5222IhFIjpywj-16" edge="1">
          <mxGeometry width="50" height="50" relative="1" as="geometry">
            <mxPoint x="400" y="340" as="sourcePoint" />
            <mxPoint x="450" y="290" as="targetPoint" />
          </mxGeometry>
        </mxCell>
        <mxCell id="PYcwion5222IhFIjpywj-18" value="" style="endArrow=none;html=1;rounded=0;exitX=1;exitY=0.5;exitDx=0;exitDy=0;entryX=0;entryY=0.25;entryDx=0;entryDy=0;" parent="1" source="PYcwion5222IhFIjpywj-3" target="PYcwion5222IhFIjpywj-16" edge="1">
          <mxGeometry width="50" height="50" relative="1" as="geometry">
            <mxPoint x="195" y="337.5" as="sourcePoint" />
            <mxPoint x="270" y="452.5" as="targetPoint" />
          </mxGeometry>
        </mxCell>
        <mxCell id="PYcwion5222IhFIjpywj-19" value="" style="endArrow=none;html=1;rounded=0;exitX=1;exitY=0.5;exitDx=0;exitDy=0;entryX=0;entryY=0.25;entryDx=0;entryDy=0;" parent="1" source="PYcwion5222IhFIjpywj-4" target="PYcwion5222IhFIjpywj-16" edge="1">
          <mxGeometry width="50" height="50" relative="1" as="geometry">
            <mxPoint x="205" y="295" as="sourcePoint" />
            <mxPoint x="280" y="410" as="targetPoint" />
          </mxGeometry>
        </mxCell>
        <mxCell id="PYcwion5222IhFIjpywj-20" value="toolbar" style="rounded=0;whiteSpace=wrap;html=1;fillColor=#f5f5f5;fontColor=#333333;strokeColor=#666666;fontStyle=1" parent="1" vertex="1">
          <mxGeometry x="360" y="342.5" width="120" height="50" as="geometry" />
        </mxCell>
        <mxCell id="PYcwion5222IhFIjpywj-21" value="" style="endArrow=classic;html=1;rounded=0;entryX=0.568;entryY=0.238;entryDx=0;entryDy=0;entryPerimeter=0;exitX=1;exitY=0.5;exitDx=0;exitDy=0;" parent="1" source="PYcwion5222IhFIjpywj-20" edge="1">
          <mxGeometry width="50" height="50" relative="1" as="geometry">
            <mxPoint x="480" y="352.5" as="sourcePoint" />
            <mxPoint x="540.1599999999999" y="352.48" as="targetPoint" />
          </mxGeometry>
        </mxCell>
        <mxCell id="PYcwion5222IhFIjpywj-50" style="edgeStyle=orthogonalEdgeStyle;rounded=0;orthogonalLoop=1;jettySize=auto;html=1;exitX=0.5;exitY=0;exitDx=0;exitDy=0;entryX=0.5;entryY=0;entryDx=0;entryDy=0;dashed=1;" parent="1" source="PYcwion5222IhFIjpywj-22" target="PYcwion5222IhFIjpywj-42" edge="1">
          <mxGeometry relative="1" as="geometry" />
        </mxCell>
        <mxCell id="PYcwion5222IhFIjpywj-22" value="E" style="ellipse;whiteSpace=wrap;html=1;fillColor=#d5e8d4;strokeColor=#82b366;" parent="1" vertex="1">
          <mxGeometry x="540" y="337.5" width="30" height="30" as="geometry" />
        </mxCell>
        <mxCell id="PYcwion5222IhFIjpywj-23" value="tool change" style="text;html=1;align=center;verticalAlign=middle;whiteSpace=wrap;rounded=0;" parent="1" vertex="1">
          <mxGeometry x="590" y="337.5" width="60" height="30" as="geometry" />
        </mxCell>
        <mxCell id="PYcwion5222IhFIjpywj-24" value="img w directive" style="rounded=0;whiteSpace=wrap;html=1;fillColor=#f5f5f5;fontColor=#333333;strokeColor=#666666;fontStyle=1" parent="1" vertex="1">
          <mxGeometry x="360" y="402.5" width="120" height="50" as="geometry" />
        </mxCell>
        <mxCell id="PYcwion5222IhFIjpywj-25" value="" style="endArrow=classic;html=1;rounded=0;exitX=1;exitY=0.5;exitDx=0;exitDy=0;" parent="1" source="PYcwion5222IhFIjpywj-24" target="PYcwion5222IhFIjpywj-26" edge="1">
          <mxGeometry width="50" height="50" relative="1" as="geometry">
            <mxPoint x="490" y="362.5" as="sourcePoint" />
            <mxPoint x="550" y="362.5" as="targetPoint" />
          </mxGeometry>
        </mxCell>
        <mxCell id="PYcwion5222IhFIjpywj-26" value="E" style="ellipse;whiteSpace=wrap;html=1;fillColor=#d5e8d4;strokeColor=#82b366;" parent="1" vertex="1">
          <mxGeometry x="540" y="385.5" width="30" height="30" as="geometry" />
        </mxCell>
        <mxCell id="PYcwion5222IhFIjpywj-27" value="annotations change" style="text;html=1;align=center;verticalAlign=middle;whiteSpace=wrap;rounded=0;" parent="1" vertex="1">
          <mxGeometry x="590" y="385.5" width="60" height="30" as="geometry" />
        </mxCell>
        <mxCell id="PYcwion5222IhFIjpywj-28" value="P" style="ellipse;whiteSpace=wrap;html=1;fillColor=#d5e8d4;strokeColor=#82b366;" parent="1" vertex="1">
          <mxGeometry x="285" y="382.5" width="30" height="30" as="geometry" />
        </mxCell>
        <mxCell id="PYcwion5222IhFIjpywj-30" value="image" style="text;html=1;align=center;verticalAlign=middle;whiteSpace=wrap;rounded=0;" parent="1" vertex="1">
          <mxGeometry x="230" y="380.5" width="60" height="30" as="geometry" />
        </mxCell>
        <mxCell id="PYcwion5222IhFIjpywj-31" value="annotations" style="text;html=1;align=center;verticalAlign=middle;whiteSpace=wrap;rounded=0;" parent="1" vertex="1">
          <mxGeometry x="218" y="442.5" width="60" height="30" as="geometry" />
        </mxCell>
        <mxCell id="PYcwion5222IhFIjpywj-32" value="" style="endArrow=none;html=1;rounded=0;exitX=1;exitY=0.5;exitDx=0;exitDy=0;entryX=0;entryY=0.5;entryDx=0;entryDy=0;" parent="1" source="PYcwion5222IhFIjpywj-28" target="PYcwion5222IhFIjpywj-24" edge="1">
          <mxGeometry width="50" height="50" relative="1" as="geometry">
            <mxPoint x="530" y="462.5" as="sourcePoint" />
            <mxPoint x="380" y="465.5" as="targetPoint" />
          </mxGeometry>
        </mxCell>
        <mxCell id="PYcwion5222IhFIjpywj-33" value="" style="endArrow=none;html=1;rounded=0;exitX=1;exitY=0.5;exitDx=0;exitDy=0;entryX=0;entryY=0.5;entryDx=0;entryDy=0;" parent="1" source="PYcwion5222IhFIjpywj-29" target="PYcwion5222IhFIjpywj-24" edge="1">
          <mxGeometry width="50" height="50" relative="1" as="geometry">
            <mxPoint x="325" y="460" as="sourcePoint" />
            <mxPoint x="380" y="465.5" as="targetPoint" />
          </mxGeometry>
        </mxCell>
        <mxCell id="PYcwion5222IhFIjpywj-35" value="" style="endArrow=none;html=1;rounded=0;exitX=0;exitY=0.25;exitDx=0;exitDy=0;entryX=0;entryY=0;entryDx=0;entryDy=0;strokeColor=none;dashed=1;" parent="1" source="PYcwion5222IhFIjpywj-16" target="PYcwion5222IhFIjpywj-28" edge="1">
          <mxGeometry width="50" height="50" relative="1" as="geometry">
            <mxPoint x="195" y="285" as="sourcePoint" />
            <mxPoint x="260" y="353" as="targetPoint" />
            <Array as="points">
              <mxPoint x="250" y="340" />
            </Array>
          </mxGeometry>
        </mxCell>
        <mxCell id="PYcwion5222IhFIjpywj-36" value="" style="endArrow=none;html=1;rounded=0;entryX=0;entryY=0.5;entryDx=0;entryDy=0;" parent="1" target="PYcwion5222IhFIjpywj-28" edge="1">
          <mxGeometry width="50" height="50" relative="1" as="geometry">
            <mxPoint x="250" y="380" as="sourcePoint" />
            <mxPoint x="260" y="353" as="targetPoint" />
          </mxGeometry>
        </mxCell>
        <mxCell id="PYcwion5222IhFIjpywj-37" value="" style="endArrow=none;html=1;rounded=0;entryX=0;entryY=0.5;entryDx=0;entryDy=0;" parent="1" target="PYcwion5222IhFIjpywj-29" edge="1">
          <mxGeometry width="50" height="50" relative="1" as="geometry">
            <mxPoint x="250" y="380" as="sourcePoint" />
            <mxPoint x="295" y="408" as="targetPoint" />
          </mxGeometry>
        </mxCell>
        <mxCell id="PYcwion5222IhFIjpywj-38" value="*custom img annotations list" style="rounded=0;whiteSpace=wrap;html=1;fillColor=#ffe6cc;strokeColor=#d79b00;fontStyle=1" parent="1" vertex="1">
          <mxGeometry x="360" y="499" width="120" height="50" as="geometry" />
        </mxCell>
        <mxCell id="PYcwion5222IhFIjpywj-39" value="" style="endArrow=classic;html=1;rounded=0;exitX=1;exitY=0.5;exitDx=0;exitDy=0;" parent="1" target="PYcwion5222IhFIjpywj-40" edge="1">
          <mxGeometry width="50" height="50" relative="1" as="geometry">
            <mxPoint x="480" y="524.5" as="sourcePoint" />
            <mxPoint x="550" y="459" as="targetPoint" />
          </mxGeometry>
        </mxCell>
        <mxCell id="PYcwion5222IhFIjpywj-40" value="E" style="ellipse;whiteSpace=wrap;html=1;fillColor=#d5e8d4;strokeColor=#82b366;" parent="1" vertex="1">
          <mxGeometry x="540" y="509" width="30" height="30" as="geometry" />
        </mxCell>
        <mxCell id="PYcwion5222IhFIjpywj-41" value="list init" style="text;html=1;align=center;verticalAlign=middle;whiteSpace=wrap;rounded=0;" parent="1" vertex="1">
          <mxGeometry x="590" y="509" width="60" height="30" as="geometry" />
        </mxCell>
        <mxCell id="PYcwion5222IhFIjpywj-42" value="P" style="ellipse;whiteSpace=wrap;html=1;fillColor=#d5e8d4;strokeColor=#82b366;" parent="1" vertex="1">
          <mxGeometry x="285" y="330" width="30" height="30" as="geometry" />
        </mxCell>
        <mxCell id="PYcwion5222IhFIjpywj-43" value="tool" style="text;html=1;align=center;verticalAlign=middle;whiteSpace=wrap;rounded=0;" parent="1" vertex="1">
          <mxGeometry x="250" y="330" width="40" height="30" as="geometry" />
        </mxCell>
        <mxCell id="PYcwion5222IhFIjpywj-45" value="annotator" style="text;html=1;align=center;verticalAlign=middle;whiteSpace=wrap;rounded=0;" parent="1" vertex="1">
          <mxGeometry x="218" y="491" width="60" height="30" as="geometry" />
        </mxCell>
        <mxCell id="PYcwion5222IhFIjpywj-46" value="" style="endArrow=classic;html=1;rounded=0;exitX=1;exitY=0.5;exitDx=0;exitDy=0;" parent="1" source="PYcwion5222IhFIjpywj-24" target="PYcwion5222IhFIjpywj-47" edge="1">
          <mxGeometry width="50" height="50" relative="1" as="geometry">
            <mxPoint x="480" y="472.5" as="sourcePoint" />
            <mxPoint x="550" y="407" as="targetPoint" />
          </mxGeometry>
        </mxCell>
        <mxCell id="PYcwion5222IhFIjpywj-48" value="RA wiring" style="text;html=1;align=center;verticalAlign=middle;whiteSpace=wrap;rounded=0;" parent="1" vertex="1">
          <mxGeometry x="590" y="440" width="60" height="30" as="geometry" />
        </mxCell>
        <mxCell id="PYcwion5222IhFIjpywj-66" style="edgeStyle=orthogonalEdgeStyle;rounded=0;orthogonalLoop=1;jettySize=auto;html=1;exitX=0;exitY=1;exitDx=0;exitDy=0;entryX=1;entryY=0.5;entryDx=0;entryDy=0;dashed=1;" parent="1" source="PYcwion5222IhFIjpywj-49" target="PYcwion5222IhFIjpywj-29" edge="1">
          <mxGeometry relative="1" as="geometry" />
        </mxCell>
        <mxCell id="PYcwion5222IhFIjpywj-49" value="" style="ellipse;whiteSpace=wrap;html=1;fillColor=#d5e8d4;strokeColor=#82b366;" parent="1" vertex="1">
          <mxGeometry x="550" y="440" width="30" height="30" as="geometry" />
        </mxCell>
        <mxCell id="PYcwion5222IhFIjpywj-47" value="E" style="ellipse;whiteSpace=wrap;html=1;fillColor=#d5e8d4;strokeColor=#82b366;" parent="1" vertex="1">
          <mxGeometry x="540" y="430" width="30" height="30" as="geometry" />
        </mxCell>
        <mxCell id="PYcwion5222IhFIjpywj-51" value="" style="endArrow=none;html=1;rounded=0;exitX=1;exitY=0.5;exitDx=0;exitDy=0;entryX=0;entryY=0.5;entryDx=0;entryDy=0;" parent="1" source="PYcwion5222IhFIjpywj-42" target="PYcwion5222IhFIjpywj-24" edge="1">
          <mxGeometry width="50" height="50" relative="1" as="geometry">
            <mxPoint x="325" y="408" as="sourcePoint" />
            <mxPoint x="370" y="438" as="targetPoint" />
          </mxGeometry>
        </mxCell>
        <mxCell id="PYcwion5222IhFIjpywj-52" value="" style="endArrow=none;html=1;rounded=0;exitX=1;exitY=0.5;exitDx=0;exitDy=0;entryX=0;entryY=0.5;entryDx=0;entryDy=0;" parent="1" source="PYcwion5222IhFIjpywj-28" target="PYcwion5222IhFIjpywj-38" edge="1">
          <mxGeometry width="50" height="50" relative="1" as="geometry">
            <mxPoint x="325" y="408" as="sourcePoint" />
            <mxPoint x="370" y="438" as="targetPoint" />
          </mxGeometry>
        </mxCell>
        <mxCell id="PYcwion5222IhFIjpywj-53" value="" style="endArrow=none;html=1;rounded=0;exitX=1;exitY=0.5;exitDx=0;exitDy=0;entryX=0;entryY=0.5;entryDx=0;entryDy=0;" parent="1" source="PYcwion5222IhFIjpywj-44" target="PYcwion5222IhFIjpywj-38" edge="1">
          <mxGeometry width="50" height="50" relative="1" as="geometry">
            <mxPoint x="325" y="408" as="sourcePoint" />
            <mxPoint x="360" y="490" as="targetPoint" />
          </mxGeometry>
        </mxCell>
        <mxCell id="PYcwion5222IhFIjpywj-55" value="editor component" style="text;html=1;align=center;verticalAlign=middle;whiteSpace=wrap;rounded=0;" parent="1" vertex="1">
          <mxGeometry x="218" y="541" width="60" height="30" as="geometry" />
        </mxCell>
        <mxCell id="PYcwion5222IhFIjpywj-56" value="" style="endArrow=none;html=1;rounded=0;exitX=1;exitY=0.5;exitDx=0;exitDy=0;entryX=0;entryY=0.5;entryDx=0;entryDy=0;" parent="1" source="PYcwion5222IhFIjpywj-54" target="PYcwion5222IhFIjpywj-38" edge="1">
          <mxGeometry width="50" height="50" relative="1" as="geometry">
            <mxPoint x="325" y="525" as="sourcePoint" />
            <mxPoint x="370" y="505" as="targetPoint" />
          </mxGeometry>
        </mxCell>
        <mxCell id="PYcwion5222IhFIjpywj-57" value="gallery list" style="rounded=0;whiteSpace=wrap;html=1;fillColor=#f5f5f5;fontColor=#333333;strokeColor=#666666;fontStyle=1" parent="1" vertex="1">
          <mxGeometry x="360" y="577" width="120" height="50" as="geometry" />
        </mxCell>
        <mxCell id="PYcwion5222IhFIjpywj-59" value="entries" style="text;html=1;align=center;verticalAlign=middle;whiteSpace=wrap;rounded=0;" parent="1" vertex="1">
          <mxGeometry x="218" y="596" width="60" height="30" as="geometry" />
        </mxCell>
        <mxCell id="PYcwion5222IhFIjpywj-60" value="" style="endArrow=none;html=1;rounded=0;exitX=1;exitY=0.5;exitDx=0;exitDy=0;entryX=0;entryY=0.5;entryDx=0;entryDy=0;" parent="1" source="PYcwion5222IhFIjpywj-58" target="PYcwion5222IhFIjpywj-57" edge="1">
          <mxGeometry width="50" height="50" relative="1" as="geometry">
            <mxPoint x="325" y="580" as="sourcePoint" />
            <mxPoint x="360" y="550" as="targetPoint" />
          </mxGeometry>
        </mxCell>
        <mxCell id="PYcwion5222IhFIjpywj-61" value="" style="endArrow=classic;html=1;rounded=0;entryX=0;entryY=0.5;entryDx=0;entryDy=0;exitX=1;exitY=0.5;exitDx=0;exitDy=0;" parent="1" target="PYcwion5222IhFIjpywj-62" edge="1">
          <mxGeometry width="50" height="50" relative="1" as="geometry">
            <mxPoint x="480" y="602.5" as="sourcePoint" />
            <mxPoint x="540.1599999999999" y="586.98" as="targetPoint" />
          </mxGeometry>
        </mxCell>
        <mxCell id="PYcwion5222IhFIjpywj-62" value="E" style="ellipse;whiteSpace=wrap;html=1;fillColor=#d5e8d4;strokeColor=#82b366;" parent="1" vertex="1">
          <mxGeometry x="540" y="587" width="30" height="30" as="geometry" />
        </mxCell>
        <mxCell id="PYcwion5222IhFIjpywj-63" value="image pick" style="text;html=1;align=center;verticalAlign=middle;whiteSpace=wrap;rounded=0;" parent="1" vertex="1">
          <mxGeometry x="590" y="587" width="60" height="30" as="geometry" />
        </mxCell>
        <mxCell id="PYcwion5222IhFIjpywj-64" style="edgeStyle=orthogonalEdgeStyle;rounded=0;orthogonalLoop=1;jettySize=auto;html=1;exitX=0.5;exitY=1;exitDx=0;exitDy=0;entryX=0.5;entryY=1;entryDx=0;entryDy=0;dashed=1;" parent="1" source="PYcwion5222IhFIjpywj-62" target="PYcwion5222IhFIjpywj-28" edge="1">
          <mxGeometry relative="1" as="geometry">
            <mxPoint x="585" y="596" as="sourcePoint" />
            <mxPoint x="325" y="641" as="targetPoint" />
          </mxGeometry>
        </mxCell>
        <mxCell id="PYcwion5222IhFIjpywj-29" value="P" style="ellipse;whiteSpace=wrap;html=1;fillColor=#d5e8d4;strokeColor=#82b366;" parent="1" vertex="1">
          <mxGeometry x="285" y="442.5" width="30" height="30" as="geometry" />
        </mxCell>
        <mxCell id="PYcwion5222IhFIjpywj-44" value="P" style="ellipse;whiteSpace=wrap;html=1;fillColor=#d5e8d4;strokeColor=#82b366;" parent="1" vertex="1">
          <mxGeometry x="285" y="491" width="30" height="30" as="geometry" />
        </mxCell>
        <mxCell id="PYcwion5222IhFIjpywj-54" value="P" style="ellipse;whiteSpace=wrap;html=1;fillColor=#d5e8d4;strokeColor=#82b366;" parent="1" vertex="1">
          <mxGeometry x="285" y="540" width="30" height="30" as="geometry" />
        </mxCell>
        <mxCell id="PYcwion5222IhFIjpywj-58" value="P" style="ellipse;whiteSpace=wrap;html=1;fillColor=#d5e8d4;strokeColor=#82b366;" parent="1" vertex="1">
          <mxGeometry x="285" y="595" width="30" height="30" as="geometry" />
        </mxCell>
      </root>
    </mxGraphModel>
  </diagram>
</mxfile>
